<?xml version="1.0" encoding="UTF-8" standalone="no"?>
<svg width="305px" height="45px" viewBox="0 0 305 45" version="1.1" xmlns="http://www.w3.org/2000/svg" xmlns:xlink="http://www.w3.org/1999/xlink" xmlns:sketch="http://www.bohemiancoding.com/sketch/ns">
    <!-- Generator: Sketch 3.3.3 (12081) - http://www.bohemiancoding.com/sketch -->
    <title>Group</title>
    <desc>Created with Sketch.</desc>
    <defs></defs>
    <g id="Page-1" stroke="none" stroke-width="1" fill="none" fill-rule="evenodd" sketch:type="MSPage">
        <g id="Login" sketch:type="MSArtboardGroup" transform="translate(-35.000000, -426.000000)">
            <g id="Group" sketch:type="MSLayerGroup" transform="translate(35.000000, 426.000000)">
                <rect id="Rectangle-1-Copy-4" fill="#3B599A" sketch:type="MSShapeGroup" x="81" y="0" width="224" height="45"></rect>
                <rect id="Rectangle-1-Copy-5" fill="#34518F" sketch:type="MSShapeGroup" x="0" y="0" width="82" height="45"></rect>
                <text id="LOGIN-WITH-FACEBOOK" sketch:type="MSTextLayer" font-family="Prelo" font-size="15" font-weight="bold" sketch:alignment="middle" fill="#FFFFFF">
                    <tspan x="116.07" y="28">LOGIN WITH FACEBOOK</tspan>
                </text>
                <path d="M39.0015025,19.2115243 L37,19.2115243 L37,22.4593252 L39.0015025,22.4593252 L39.0015025,32 L42.8503496,32 L42.8503496,22.4187427 L45.5355659,22.4187427 L45.8214286,19.2115243 L42.8503496,19.2115243 L42.8503496,17.3846189 C42.8503496,16.6284005 43.0035334,16.3290121 43.7386022,16.3290121 L45.8213822,16.3290121 L45.8213822,13 L43.1566244,13 C40.2927092,13 39.0015025,14.2534005 39.0015025,16.6538568 L39.0015025,19.2115243 L39.0015025,19.2115243 Z" id="facebook-icon" fill="#FFFFFF" sketch:type="MSShapeGroup"></path>
            </g>
        </g>
    </g>
</svg>